<svg width="36" height="36" viewBox="0 0 25 25" fill="none" xmlns="http://www.w3.org/2000/svg">
<g id="Group 5">
<path id="plus" fill-rule="evenodd" clip-rule="evenodd" d="M21.875 9.375H15.625V3.125C15.625 1.39844 14.2258 0 12.5 0C10.7742 0 9.375 1.39844 9.375 3.125V9.375H3.125C1.39922 9.375 0 10.7734 0 12.5C0 14.2266 1.39922 15.625 3.125 15.625H9.375V21.875C9.375 23.6016 10.7742 25 12.5 25C14.2258 25 15.625 23.6016 15.625 21.875V15.625H21.875C23.6008 15.625 25 14.2266 25 12.5C25 10.7734 23.6008 9.375 21.875 9.375Z" fill="white"/>
</g>
</svg>
