<svg width="25" height="25" viewBox="0 0 25 25" fill="none" xmlns="http://www.w3.org/2000/svg">
<g id="pen 1">
<path id="Vector" d="M16.1456 5.72922L19.0919 8.6755M3.125 21.8748L3.17443 21.5288C3.34933 20.3045 3.43679 19.6923 3.63572 19.1207C3.81224 18.6136 4.05337 18.1313 4.35319 17.6858C4.69105 17.1838 5.12832 16.7465 6.00285 15.872L18.1361 3.73861C18.9498 2.92502 20.2689 2.92502 21.0825 3.73861C21.896 4.55221 21.896 5.8713 21.0825 6.68489L8.7265 19.0408C7.93311 19.8343 7.53643 20.2309 7.08458 20.5464C6.68352 20.8264 6.25097 21.0583 5.79581 21.2375C5.28303 21.4394 4.73307 21.5503 3.63326 21.7722L3.125 21.8748Z" stroke="white" stroke-width="2" stroke-linecap="round" stroke-linejoin="round"/>
</g>
</svg>
