<svg width="20" height="20" viewBox="0 0 20 20" fill="none" xmlns="http://www.w3.org/2000/svg">
<path d="M19.2831 8.66875C18.5786 3.53785 13.8481 -0.0504456 8.71719 0.654063C3.58629 1.35857 -0.0020082 6.0891 0.7025 11.22C1.27306 15.4103 4.56154 18.7095 8.75 19.2938C9.1678 19.348 9.58869 19.3752 10.01 19.375C11.7097 19.3781 13.3777 18.9143 14.8319 18.0344C15.0349 17.9251 15.1614 17.713 15.1608 17.4824C15.1602 17.2519 15.0328 17.0403 14.8292 16.9321C14.6256 16.8239 14.3789 16.8365 14.1875 16.965C10.7855 19.0101 6.40396 18.2992 3.82296 15.2835C1.24196 12.2678 1.21624 7.82905 3.76211 4.78361C6.30798 1.73818 10.681 0.976604 14.1065 2.9821C17.532 4.98759 19.0083 9.17367 17.5987 12.8844C17.3688 13.49 16.7392 13.8451 16.1019 13.7288C15.4646 13.6125 15.0012 13.0578 15 12.41V5.625C15 5.28005 14.7199 5 14.375 5C14.0301 5 13.75 5.28005 13.75 5.625V6.70375C12.3646 5.12717 10.142 4.58365 8.1853 5.34293C6.22863 6.10222 4.95442 8.00268 4.99507 10.1011C5.03572 12.1995 6.38257 14.0492 8.36717 14.7322C10.3518 15.4151 12.5517 14.7859 13.875 13.1569C14.1929 14.2188 15.1526 14.9597 16.2604 14.9985C17.3682 15.0372 18.3774 14.3652 18.7687 13.3281C19.3267 11.8423 19.5036 10.2405 19.2831 8.66875ZM10 13.75C7.93032 13.75 6.25 12.0697 6.25 10C6.25 7.93032 7.93032 6.25 10 6.25C12.0697 6.25 13.75 7.93032 13.75 10C13.7479 12.0702 12.0702 13.7479 10 13.75Z" fill="black"/>
</svg>
